<svg id="Camada_1" data-name="Camada 1" xmlns="http://www.w3.org/2000/svg" viewBox="0 0 432.03 265.97"><defs><style>.cls-1{fill:#6baf45;}.cls-1,.cls-2,.cls-3{fill-rule:evenodd;}.cls-2{fill:#f9c62b;}.cls-3,.cls-4{fill:#969697;}</style></defs><title>logotype</title><path class="cls-1" d="M38.55,256.35H20l-3.27,8.5H0l21.33-48.79H37.5l21.33,48.79h-17l-3.27-8.5ZM34,244.5h0l-4.74-12.27L24.54,244.5Z"/><polygon class="cls-1" points="61.48 216.06 77.93 216.06 77.93 252.09 99.96 252.09 99.96 264.85 61.48 264.85 61.48 216.06"/><polygon class="cls-1" points="153.49 216.06 132.86 264.85 116.69 264.85 96.05 216.06 113.76 216.06 125.4 244.57 137.32 216.06 153.49 216.06"/><path class="cls-1" d="M152.45,240.45c0-14.77,11.64-25.51,27.53-25.51s27.53,10.74,27.53,25.51S195.87,266,180,266s-27.53-10.74-27.53-25.52Zm38.47,0h0c0-7.59-4.88-12.19-10.94-12.19S169,232.86,169,240.45s4.88,12.2,10.95,12.2S190.92,248.05,190.92,240.45Z"/><path class="cls-1" d="M234.42,252.58H230v12.27H213.51V216.06H237c13.59,0,22.23,7.11,22.23,18.4,0,7-3.34,12.34-9.2,15.33l10.25,15.06H242.71l-8.29-12.27ZM236,228.74h-6v11.43h6c4.53,0,6.69-2.16,6.69-5.71S240.48,228.74,236,228.74Z"/><path class="cls-1" d="M298.69,256.35H280.14l-3.27,8.5H260.14l21.33-48.79h16.17L319,264.85H302l-3.27-8.5Zm-4.54-11.85h0l-4.73-12.27-4.74,12.27Z"/><path class="cls-1" d="M321.62,216.06h24.05c16.31,0,27.53,9.27,27.53,24.39s-11.22,24.4-27.53,24.4H321.62V216.06ZM345,252h0c6.9,0,11.64-4.11,11.64-11.57s-4.74-11.57-11.64-11.57h-6.9V252Z"/><path class="cls-1" d="M411.75,256.35H393.21l-3.28,8.5H373.2l21.33-48.79H410.7L432,264.85H415l-3.27-8.5Zm-4.53-11.85h0l-4.74-12.27-4.74,12.27Z"/><path class="cls-2" d="M215.23,18.29A3.26,3.26,0,0,0,218.49,15V3.27a3.27,3.27,0,1,0-6.53,0V15A3.26,3.26,0,0,0,215.23,18.29Z"/><path class="cls-2" d="M191.82,17.48a3.27,3.27,0,0,0,6.31-1.69l-3-11.35a3.27,3.27,0,1,0-6.31,1.69Z"/><path class="cls-2" d="M173.35,25A3.26,3.26,0,1,0,179,21.77l-5.88-10.19a3.26,3.26,0,1,0-5.65,3.27Z"/><path class="cls-2" d="M157.79,39.67a3.27,3.27,0,0,0,4.62-4.62l-8.32-8.31a3.26,3.26,0,1,0-4.61,4.62Z"/><path class="cls-2" d="M136,49.39l10.18,5.88a3.27,3.27,0,0,0,3.27-5.66L139.3,43.74A3.26,3.26,0,1,0,136,49.39Z"/><path class="cls-2" d="M139.79,68.29l-11.35-3.05a3.27,3.27,0,0,0-1.69,6.31l11.35,3a3.27,3.27,0,1,0,1.69-6.31Z"/><path class="cls-2" d="M136.53,88.5H124.77a3.27,3.27,0,0,0,0,6.53h11.76a3.26,3.26,0,0,0,0-6.52Z"/><path class="cls-2" d="M236.21,19.79a3.26,3.26,0,0,0,4-2.31l3-11.35a3.27,3.27,0,0,0-6.31-1.69l-3,11.35A3.26,3.26,0,0,0,236.21,19.79Z"/><path class="cls-2" d="M254.23,26.23a3.27,3.27,0,0,0,4.46-1.2l5.88-10.18a3.27,3.27,0,0,0-5.66-3.27L253,21.77A3.26,3.26,0,0,0,254.23,26.23Z"/><path class="cls-2" d="M274.24,39.67l8.32-8.31a3.27,3.27,0,1,0-4.62-4.62l-8.31,8.31a3.26,3.26,0,0,0,4.61,4.62Z"/><path class="cls-2" d="M281.36,54.08a3.27,3.27,0,0,0,4.46,1.19L296,49.39a3.26,3.26,0,1,0-3.27-5.65l-10.18,5.87A3.28,3.28,0,0,0,281.36,54.08Z"/><path class="cls-2" d="M293.93,74.6l11.35-3a3.26,3.26,0,1,0-1.68-6.31l-11.36,3.05a3.27,3.27,0,0,0,1.69,6.31Z"/><path class="cls-2" d="M307.26,88.49H295.5a3.26,3.26,0,1,0,0,6.52h11.76a3.27,3.27,0,0,0,0-6.53Z"/><path class="cls-1" d="M222.65,108.84v4.46a45.09,45.09,0,0,0,13.21-2.6,39.81,39.81,0,0,0,18.22-13.44c10.87-14.66,7.53-32.77,7.38-33.54l-.83-4.31-4.36.5c-21.34,2.43-32,15-36.7,27.88a52.42,52.42,0,0,1,3.08,21Zm29.9-38.71h0c.13,5.29-.63,14.17-6.14,21.55-4.46,6-11.31,10-20.43,12.1C226.51,94.76,230.27,75.08,252.55,70.13Z"/><path class="cls-2" d="M215.2,24a70.82,70.82,0,0,0-66.48,95.2H159a61.32,61.32,0,1,1,112.5,0h10.22A70.79,70.79,0,0,0,215.2,24Z"/><path class="cls-1" d="M271.45,119.17H219.94V108.84c1.11-15.34-5.77-45.05-39.78-48.93l-4.36-.5L175,63.72c-.15.77-3.49,18.88,7.38,33.54,6.21,8.39,15.65,13.83,28.1,16.22v34.83a4.49,4.49,0,0,0,4.77,4.17,4.37,4.37,0,0,0,4.72-4.17V128.66h46.34a61.29,61.29,0,0,1-102.19,0h42.19v-9.49H148.77a3.92,3.92,0,0,0,.15.59,70.85,70.85,0,0,0,132.75-.59ZM190,91.68h0c-5.51-7.38-6.27-16.26-6.14-21.55,22.28,5,26,24.63,26.57,33.65C201.33,101.72,194.48,97.66,190,91.68Z"/><path class="cls-3" d="M72.25,181.9H82.53c7.84,0,13.18,4.95,13.18,12.2s-5.34,12.2-13.18,12.2H72.25V181.9Zm10.07,21.37h0c6,0,9.9-3.7,9.9-9.17s-3.87-9.17-9.9-9.17H75.74v18.34Z"/><rect class="cls-4" x="101.04" y="181.9" width="3.48" height="24.4"/><path class="cls-3" d="M109.61,203.51l1.29-2.72a12.55,12.55,0,0,0,8,2.82c4.22,0,6-1.63,6-3.76,0-6-14.78-2.2-14.78-11.26,0-3.76,2.93-7,9.34-7a14.43,14.43,0,0,1,7.85,2.16l-1.15,2.79a12.61,12.61,0,0,0-6.7-2c-4.14,0-5.92,1.75-5.92,3.87,0,6,14.78,2.23,14.78,11.19,0,3.73-3,6.94-9.45,6.94C115.22,206.58,111.56,205.32,109.61,203.51Z"/><polygon class="cls-3" points="137.98 184.93 129.62 184.93 129.62 181.9 149.8 181.9 149.8 184.93 141.43 184.93 141.43 206.3 137.98 206.3 137.98 184.93"/><path class="cls-3" d="M169.91,206.3l-5.27-7.5c-.48,0-1,.07-1.53.07h-6v7.43H153.6V181.9h9.51c6.34,0,10.18,3.21,10.18,8.5a7.71,7.71,0,0,1-5.37,7.71l5.78,8.19Zm-.11-15.9h0c0-3.48-2.33-5.47-6.79-5.47h-5.93v11H163C167.47,195.91,169.8,193.89,169.8,190.4Z"/><rect class="cls-4" x="178.93" y="181.9" width="3.48" height="24.4"/><path class="cls-3" d="M210.72,199.71c0,4.18-3.17,6.59-9.34,6.59H189.74V181.9h10.94c5.61,0,8.75,2.37,8.75,6.31a5.79,5.79,0,0,1-3.28,5.44,5.88,5.88,0,0,1,4.57,6.06Zm-17.5-15h0v7.81h7.15c3.55,0,5.57-1.32,5.57-3.9s-2-3.91-5.57-3.91Zm14,14.71h0c0-2.82-2.09-4.08-6-4.08h-8v8.12h8C205.11,203.47,207.2,202.25,207.2,199.43Z"/><path class="cls-3" d="M215.91,195.77V181.9h3.49v13.73c0,5.4,2.47,7.84,6.86,7.84s6.9-2.44,6.9-7.84V181.9h3.38v13.87c0,7.08-3.87,10.81-10.31,10.81S215.91,202.85,215.91,195.77Z"/><rect class="cls-4" x="243.69" y="181.9" width="3.49" height="24.4"/><path class="cls-3" d="M254.49,181.9h10.28c7.85,0,13.18,4.95,13.18,12.2s-5.33,12.2-13.18,12.2H254.49V181.9Zm10.07,21.37h0c6,0,9.9-3.7,9.9-9.17s-3.87-9.17-9.9-9.17H258v18.34Z"/><path class="cls-3" d="M281.29,194.1c0-7.15,5.51-12.48,13-12.48s12.93,5.3,12.93,12.48-5.5,12.48-12.93,12.48-13-5.34-13-12.48Zm22.45,0h0a9.48,9.48,0,1,0-9.45,9.37A9.16,9.16,0,0,0,303.74,194.1Z"/><path class="cls-3" d="M328.87,206.3l-5.26-7.5c-.49,0-1,.07-1.54.07h-6v7.43h-3.48V181.9h9.51c6.34,0,10.18,3.21,10.18,8.5a7.7,7.7,0,0,1-5.37,7.71l5.79,8.19Zm-.11-15.9h0c0-3.48-2.33-5.47-6.79-5.47H316v11H322C326.43,195.91,328.76,193.89,328.76,190.4Z"/><path class="cls-3" d="M353.44,200.2h-13l-2.68,6.1H334.2l11.05-24.4h3.45l11.08,24.4h-3.66l-2.68-6.1Zm-1.22-2.79h0L347,185.46l-5.27,11.95Z"/></svg>